# xmcd
# Track frame offsets:
# 150
# 17274
# 32203
# 46997
# 63135
# 78974
# 93206
# 110110
# 123833
# 140326
# 153735
# 170929
# 188227
# 209396
# 225509
#
# Disc length: 3189 seconds
# Revision: 0
# Processed by: cddbd v1.5.1PL0 Copyright (c) Steve Scherf et al.
# Submitted via: VisiTrax 2.9.10.228 - For more info visit www.synapsa.com
#
DISCID=c20c730f
DTITLE=Morgan, Lorrie - CB90023
DYEAR=1900
DGENRE=Karaoke
TTITLE0=Dear Me
TTITLE1=Out Of Your Shoes
TTITLE2=Trainwreck Of Emotion
TTITLE3=Five Minutes
TTITLE4=He Talks To Me
TTITLE5=We Both Walk
TTITLE6=Picture Of Me Without You, A
TTITLE7=Except For Monday
TTITLE8=Watch Me
TTITLE9=What Part Of No
TTITLE10=If You Came Back From Heaven
TTITLE11=Back In Your Arms Again
TTITLE12=Something In Red
TTITLE13=Good As I Was To You
TTITLE14=Go Away
EXTD=
EXTT0=
EXTT1=
EXTT2=
EXTT3=
EXTT4=
EXTT5=
EXTT6=
EXTT7=
EXTT8=
EXTT9=
EXTT10=
EXTT11=
EXTT12=
EXTT13=
EXTT14=
PLAYORDER=
